:SAMPLES-PER-SECOND 30
:FULLY-SPECIFIED
:DEGREES
475
root  74.0576 38.4537 -4.09518 -127.949 -84.1127 123.169
RightUpLeg  -12.4487 -6.82036 -11.3925
RightLeg  52.7124 -1.97573 -3.15924
RightFoot  1.00105 -1.09236 10.1504
RightToes  -1.74624e-010 0 -3.6325e-017
Spine  4.73151 0.852116 -2.74568
Spine1  6.58652 1.28715 -4.61206
HEad  -1.53801 -14.7162 -10.4859
LeftShoulder1  -0.755433 5.3547 -34.6264
LeftArm  4.40932 9.65996 -38.3432
LeftForeArm  23.6925 -15.9866 -6.72343
LeftHand  -0.0289787 8.90701 0.60637
RightShoulder  -1.00631 -6.18119 31.0165
RightArm  17.1592 -6.23343 44.2289
RightForeArm  18.3853 9.78873 7.56021
RightHand  -0.155901 4.23117 -2.16066
LeftUpLeg  -4.09067 3.43004 -7.69834
LeftLeg  16.6002 2.4963 0.601248
LeftFoot  -8.6598 -0.128164 7.67678
LeftToes  2.27646e-009 -8.13696e-011 -1.44715e-011
476
root  73.7115 38.3819 -3.99994 -135.174 -83.363 130.448
RightUpLeg  -15.5804 -1.90336 -10.8223
RightLeg  54.1444 1.63442 2.00252
RightFoot  -0.136183 -1.16197 11.7821
RightToes  -1.74624e-010 0 -3.6325e-017
Spine  5.27908 0.943074 -3.49562
Spine1  5.76042 1.36868 -5.063
HEad  -1.89455 -13.9172 -10.4617
LeftShoulder1  -0.7981 5.45035 -34.8281
LeftArm  4.51727 8.42968 -37.8425
LeftForeArm  23.3101 -16.319 -6.54844
LeftHand  -0.0284023 9.08956 0.776504
RightShoulder  -0.993949 -6.15088 30.9742
RightArm  14.3278 -8.32916 43.8959
RightForeArm  17.9861 7.88553 7.11926
RightHand  -0.17602 4.16962 -2.41736
LeftUpLeg  -3.86627 3.40492 -8.04965
LeftLeg  17.2402 3.54783 1.02194
LeftFoot  -9.71095 -0.0484151 7.50808
LeftToes  2.27646e-009 -8.13696e-011 -1.44715e-011
477
root  73.3733 38.3801 -3.97689 -138.553 -83.8866 134.249
RightUpLeg  -18.2241 1.52046 -9.27769
RightLeg  53.3497 2.07801 2.62833
RightFoot  -0.708303 -1.11344 11.8701
RightToes  -1.74624e-010 0 -3.6325e-017
Spine  4.94256 0.266643 -3.73301
Spine1  5.8712 0.748716 -5.3457
HEad  -2.29499 -12.7372 -9.4857
LeftShoulder1  -0.850042 5.62558 -33.871
LeftArm  3.65594 7.73443 -38.4458
LeftForeArm  23.8389 -16.7025 -6.2031
LeftHand  0.0152919 7.56356 2.67729
RightShoulder  -0.942907 -6.02192 30.8566
RightArm  13.1428 -9.4544 44.3727
RightForeArm  18.5207 6.43122 6.79697
RightHand  -0.149116 4.88696 -1.96852
LeftUpLeg  -4.05181 3.9752 -7.29508
LeftLeg  17.9991 2.61103 0.795085
LeftFoot  -10.6087 0.0153178 7.62146
LeftToes  2.27646e-009 -8.13696e-011 -1.44715e-011
478
root  73.0252 38.4285 -3.88746 -144.832 -84.0094 140.785
RightUpLeg  -20.1163 4.8247 -8.11889
RightLeg  50.5298 0.705173 0.598018
RightFoot  -1.53623 -0.983934 11.3089
RightToes  -1.74624e-010 0 -3.6325e-017
Spine  4.75259 -0.0899072 -4.0147
Spine1  6.12615 0.378034 -4.9236
HEad  -2.83267 -11.6327 -8.85335
LeftShoulder1  -0.777687 5.47781 -33.2337
LeftArm  3.14366 7.15622 -39.183
LeftForeArm  22.4525 -17.4392 -5.76153
LeftHand  0.0352183 7.99092 3.30311
RightShoulder  -0.920744 -5.97181 30.7064
RightArm  12.8931 -10.4392 44.3048
RightForeArm  19.8898 6.4283 6.63244
RightHand  -0.0786682 4.38913 -1.21873
LeftUpLeg  -3.58287 4.30692 -6.79822
LeftLeg  17.8728 2.81163 0.84934
LeftFoot  -11.1604 0.0545059 7.97566
LeftToes  2.27646e-009 -8.13696e-011 -1.44715e-011
479
root  72.6576 38.5027 -3.80047 -148.853 -84.6945 145.209
RightUpLeg  -21.3359 7.06642 -6.98526
RightLeg  45.6234 -0.995163 -1.39624
RightFoot  -2.17922 -0.828109 10.1288
RightToes  -1.74624e-010 0 -3.6325e-017
Spine  4.36905 -0.488914 -4.63508
Spine1  6.49551 -0.275144 -3.24691
HEad  -3.67684 -11.0003 -8.97921
LeftShoulder1  -0.771187 5.46479 -33.181
LeftArm  3.57059 5.9977 -39.6545
LeftForeArm  21.5009 -17.8737 -5.60346
LeftHand  0.0358832 7.8906 3.36712
RightShoulder  -0.884877 -5.90135 30.3021
RightArm  13.4692 -11.3581 43.9425
RightForeArm  19.4944 6.99153 6.79562
RightHand  -0.133917 4.14966 -1.90794
LeftUpLeg  -3.1348 4.36117 -6.19143
LeftLeg  17.4557 2.47075 0.85606
LeftFoot  -11.6208 0.0896748 8.05633
LeftToes  2.27646e-009 -8.13696e-011 -1.44715e-011
480
root  72.2131 38.5711 -3.67967 -153.482 -84.8469 150.279
RightUpLeg  -22.0758 9.47183 -6.30964
RightLeg  39.2277 -1.50423 -1.60559
RightFoot  -2.19772 -0.708584 8.65734
RightToes  -1.74624e-010 0 -3.6325e-017
Spine  3.86595 -0.570599 -4.83837
Spine1  6.77929 -0.433108 -2.24605
HEad  -3.86647 -10.5943 -8.53949
LeftShoulder1  -0.880773 5.75934 -32.8881
LeftArm  4.68602 4.45541 -40.2684
LeftForeArm  21.7363 -18.0924 -5.58771
LeftHand  -0.00365875 7.48935 1.97676
RightShoulder  -0.966047 -6.09884 30.6514
RightArm  14.5774 -12.2503 42.7741
RightForeArm  18.9224 8.50821 6.92009
RightHand  -0.133171 3.64739 -1.97256
LeftUpLeg  -2.42682 4.37615 -5.92648
LeftLeg  16.5947 2.53469 0.859427
LeftFoot  -11.9944 0.11864 8.11278
LeftToes  2.27646e-009 -8.13696e-011 -1.44715e-011
481
root  71.7702 38.5835 -3.58185 -155.04 -85.0871 152.178
RightUpLeg  -22.2532 10.1936 -5.77104
RightLeg  31.7404 -0.25917 -0.428611
RightFoot  -2.26798 -0.735381 9.06232
RightToes  -1.74624e-010 0 -3.6325e-017
Spine  4.6479 -0.630002 -5.38697
Spine1  5.63779 -0.704343 -1.06099
HEad  -4.02465 -10.55 -8.54761
LeftShoulder1  -0.794415 5.5076 -33.4592
LeftArm  7.16933 4.04014 -40.0332
LeftForeArm  20.3892 -19.4401 -5.1077
LeftHand  -0.00309876 8.3455 1.57904
RightShoulder  -1.03161 -6.2764 30.6513
RightArm  15.9847 -13.3769 41.8757
RightForeArm  17.4934 10.0034 6.93324
RightHand  -0.131846 4.6042 -1.8148
LeftUpLeg  -1.89376 4.40953 -5.82421
LeftLeg  16.2784 2.34185 0.805142
LeftFoot  -12.6884 0.170205 7.99487
LeftToes  2.27646e-009 -8.13696e-011 -1.44715e-011
482
root  71.2391 38.5834 -3.46687 -158.5 -84.6148 155.82
RightUpLeg  -21.8956 10.1302 -5.05866
RightLeg  23.9357 2.25058 0.899541
RightFoot  -2.8156 -0.794407 10.3724
RightToes  -1.74624e-010 0 -3.6325e-017
Spine  4.60854 -0.495663 -4.78744
Spine1  5.8419 -0.341974 -1.6039
HEad  -4.3699 -10.8574 -8.15718
LeftShoulder1  -0.727299 5.36318 -32.9588
LeftArm  8.21376 2.92916 -40.8302
LeftForeArm  20.3955 -19.3973 -5.20238
LeftHand  0.00578079 7.88623 2.08696
RightShoulder  -1.07015 -6.36689 30.8296
RightArm  17.3655 -14.0024 41.6849
RightForeArm  16.0708 11.3175 6.87398
RightHand  -0.171809 4.60942 -2.28658
LeftUpLeg  -0.893714 4.59902 -5.88347
LeftLeg  15.7238 2.69293 0.768182
LeftFoot  -13.4322 0.221709 7.68503
LeftToes  2.27646e-009 -8.13696e-011 -1.44715e-011
